<svg width="27" height="22" viewBox="0 0 27 22" fill="none" xmlns="http://www.w3.org/2000/svg">
<path d="M17.6445 0H9.3555C1.791 0 0 1.45933 0 7.623V14.377C0 20.5407 1.791 22 9.3555 22H17.6445C25.209 22 27 20.5407 27 14.377V7.623C27 1.45933 25.1899 0 17.6445 0ZM21.798 15.6961H19.836C19.0935 15.6961 18.864 15.2148 17.5297 14.113C16.3676 13.1963 15.8535 13.0726 15.5677 13.0726C15.1673 13.0726 15.0525 13.1661 15.0525 13.6162V15.0599C15.0525 15.4486 14.9006 15.6814 13.6429 15.6814C11.5661 15.6814 9.25987 14.6566 7.641 12.7462C5.202 9.95225 4.53375 7.85583 4.53375 7.42133C4.53375 7.1885 4.6485 6.97125 5.20088 6.97125H7.16288C7.65788 6.97125 7.84912 7.15733 8.04037 7.59183C9.01125 9.87433 10.6313 11.8772 11.2984 11.8772C11.5459 11.8772 11.6606 11.7837 11.6606 11.2722V8.91091C11.5841 7.82375 10.8787 7.73116 10.8787 7.34341C10.8787 7.15641 11.07 6.97033 11.3737 6.97033H14.4608C14.8804 6.97033 15.0323 7.15641 15.0323 7.55975V10.7433C15.0323 11.0843 15.2235 11.209 15.3371 11.209C15.5846 11.209 15.795 11.0843 16.2518 10.7122C17.6625 9.42333 18.6716 7.436 18.6716 7.436C18.8055 7.20316 19.0339 6.98591 19.53 6.98591H21.492C22.0826 6.98591 22.2165 7.23341 22.0826 7.57533C21.8351 8.50758 19.4344 11.2704 19.4344 11.2704C19.2251 11.55 19.1486 11.6737 19.4344 11.9854C19.6436 12.2182 20.3299 12.6995 20.7878 13.134C21.6259 13.9104 22.2728 14.5622 22.4449 15.0132C22.6361 15.4623 22.3493 15.6952 21.7969 15.6952L21.798 15.6961Z" fill="white"/>
</svg>
