<svg width="27" height="26" viewBox="0 0 27 26" fill="none" xmlns="http://www.w3.org/2000/svg">
<path d="M13.5 25.745C20.5389 25.745 26.245 20.0389 26.245 13C26.245 5.96109 20.5389 0.254944 13.5 0.254944C6.46109 0.254944 0.754944 5.96109 0.754944 13C0.754944 20.0389 6.46109 25.745 13.5 25.745Z" fill="url(#paint0_linear_1_298)"/>
<path d="M11.1634 18.8415C10.7505 18.8415 10.8207 18.6856 10.6782 18.2924L9.46405 14.2964L18.8104 8.75165" fill="#C8DAEA"/>
<path d="M11.1634 18.8415C11.482 18.8415 11.6228 18.6957 11.8006 18.5228L13.5 16.8704L11.3803 15.5922" fill="#A9C9DD"/>
<path d="M11.38 15.5925L16.5163 19.3873C17.1024 19.7107 17.5254 19.5432 17.6714 18.8431L19.7621 8.99087C19.9762 8.13268 19.435 7.74345 18.8743 7.99801L6.59761 12.7318C5.75962 13.068 5.7645 13.5355 6.44486 13.7438L9.59533 14.7271L16.889 10.1256C17.2333 9.91682 17.5493 10.0291 17.29 10.2593" fill="url(#paint1_linear_1_298)"/>
<defs>
<linearGradient id="paint0_linear_1_298" x1="272.663" y1="68.2421" x2="170.702" y2="306.136" gradientUnits="userSpaceOnUse">
<stop stop-color="#37AEE2"/>
<stop offset="1" stop-color="#1E96C8"/>
</linearGradient>
<linearGradient id="paint1_linear_1_298" x1="152.24" y1="89.181" x2="184.152" y2="161.799" gradientUnits="userSpaceOnUse">
<stop stop-color="#EFF7FC"/>
<stop offset="1" stop-color="white"/>
</linearGradient>
</defs>
</svg>
