<svg width="45" height="42" viewBox="0 0 45 42" fill="none" xmlns="http://www.w3.org/2000/svg">
<path d="M22.5 2.20836C17.0877 2.15825 11.8751 4.06806 8.00762 7.51808C4.14016 10.9681 1.93436 15.676 1.875 20.6071C1.89585 24.5041 3.27177 28.2948 5.80511 31.4348C8.33846 34.5748 11.8989 36.9024 15.975 38.0834C17.0062 38.2542 17.3812 37.6905 17.3812 37.195C17.3812 36.6996 17.3812 35.6063 17.3812 34.0688C11.6437 35.1792 10.425 31.6088 10.425 31.6088C10.0431 30.488 9.23106 29.5298 8.1375 28.9096C6.2625 27.7821 8.2875 27.7992 8.2875 27.7992C8.93559 27.8781 9.55566 28.0898 10.1012 28.4182C10.6467 28.7466 11.1036 29.1833 11.4375 29.6955C12.0194 30.6148 12.9741 31.2892 14.0963 31.5735C15.2184 31.8579 16.4182 31.7294 17.4375 31.2159C17.5423 30.2804 18.0073 29.4089 18.75 28.7559C14.175 28.2946 9.375 26.723 9.375 19.6675C9.33408 17.8271 10.0805 16.0443 11.4562 14.6963C10.8297 13.1162 10.9037 11.3758 11.6625 9.84461C11.6625 9.84461 13.4062 9.3492 17.2875 11.7238C20.666 10.9035 24.2214 10.9035 27.6 11.7238C31.5375 9.3492 33.225 9.84461 33.225 9.84461C33.9838 11.3758 34.0578 13.1162 33.4312 14.6963C34.839 16.0196 35.6258 17.7904 35.625 19.6334C35.625 26.7059 30.7875 28.2605 26.25 28.7217C26.7468 29.1612 27.1306 29.6956 27.3738 30.2863C27.6169 30.8771 27.7134 31.5096 27.6562 32.1384V37.178C27.6562 37.178 28.0312 38.2542 29.0625 38.0663C33.127 36.878 36.6755 34.5498 39.201 31.4143C41.7265 28.2788 43.0999 24.4963 43.125 20.6071C43.0656 15.676 40.8598 10.9681 36.9924 7.51808C33.1249 4.06806 27.9122 2.15825 22.5 2.20836Z" fill="#FFFCFD"/>
</svg>
